<svg width="0" height="0" display="none" xmlns="http://www.w3.org/2000/svg">
<symbol id="bars" viewBox="0 0 16 11"><path d="M1 5.5h13.5M1 1h13.5M1 10h13.5" stroke-width="1.5" stroke-linecap="round" stroke-linejoin="round"/></symbol>
<symbol id="check" viewBox="0 0 12 9"><path d="M10.625 1L4.008 8 1 4.818" stroke-width="2" stroke-linecap="round" stroke-linejoin="round"/></symbol>
<symbol id="chevron-down" viewBox="0 0 9 5"><path d="M1 .5L4.5 4 8 .5" stroke-width="1.2"/></symbol>
<symbol id="chevron-left" viewBox="0 0 8 14"><path fill-rule="evenodd" clip-rule="evenodd" d="M7.707.293a1 1 0 010 1.414L2.414 7l5.293 5.293a1 1 0 11-1.414 1.414l-6-6a1 1 0 010-1.414l6-6a1 1 0 011.414 0z"/></symbol>
<symbol id="chevron-left_" viewBox="0 0 14 27"><path d="M13.5 1L1 13.5 13.5 26" stroke-linecap="round" stroke-linejoin="round"/></symbol>
<symbol id="chevron-right" viewBox="0 0 8 14"><path fill-rule="evenodd" clip-rule="evenodd" d="M.293 13.707a1 1 0 010-1.414L5.586 7 .293 1.707A1 1 0 011.707.293l6 6a1 1 0 010 1.414l-6 6a1 1 0 01-1.414 0z"/></symbol>
<symbol id="chevron-right_" viewBox="0 0 14 27"><path d="M1 26l12.5-12.5L1 1" stroke-linecap="round" stroke-linejoin="round"/></symbol>
<symbol id="clock" viewBox="0 0 31 31"><path d="M15.5 30C23.508 30 30 23.508 30 15.5S23.508 1 15.5 1 1 7.492 1 15.5 7.492 30 15.5 30z" stroke-width="2" stroke-linecap="round" stroke-linejoin="round"/><path d="M15.5 6.8v8.7l5.8 2.9" stroke-width="2" stroke-linecap="round" stroke-linejoin="round"/></symbol>
<symbol id="close" viewBox="0 0 22 22"><path d="M21 1L11 11M1 21l10-10m0 0l10 10L1 1"/></symbol>
<symbol id="crown" viewBox="0 0 68 67"><path d="M54.246 42.843l-7.215 4.771a5.278 5.278 0 00-4.542-2.601h-6.371c-1.372 0-2.015-.996-2.658-1.459-4.925-4.27-12.352-4.27-17.275-.002l-1.39 1.2H1.308C.586 44.751 0 45.336 0 46.06v15.705c0 .723.586 1.309 1.309 1.309h13.588l23.45 3.908c.346.058.701-.026.986-.233l27.139-19.774a1.31 1.31 0 00.29-1.824c-2.873-3.983-8.367-5-12.516-2.308zM38.236 64.31L15.22 60.474a1.315 1.315 0 00-.215-.018H2.618V47.369H15.28c.794 0 1.02-.564 2.617-1.837 3.946-3.422 9.9-3.422 13.847 0 .55.37 1.835 2.098 4.373 2.098h6.37c1.422 0 2.618 1.125 2.618 2.546 0 1.411-1.174 2.559-2.617 2.559H26.784a1.309 1.309 0 000 2.617h15.705c2.846 0 5.17-2.258 5.233-5.057l7.958-5.263a6.613 6.613 0 018.093.67L38.236 64.31zM42.665 25.644a1.309 1.309 0 11-2.617 0 1.309 1.309 0 012.617 0z"/><path d="M25.52 32.187h31.41c.724 0 1.31-.586 1.31-1.308v-5.108l3.963-20.285a1.309 1.309 0 00-2.01-1.34l-10.69 7.127L42.375.583a1.31 1.31 0 00-2.178 0l-7.127 10.69-10.69-7.127a1.309 1.309 0 00-2.01 1.332l3.84 20.289v5.112c0 .722.587 1.308 1.31 1.308zm7.189-18.01c.601.4 1.414.238 1.814-.363l6.764-10.146 6.764 10.146c.4.601 1.213.764 1.814.363l9.167-6.111-3.18 16.27h-8.606a1.309 1.309 0 100 2.617h8.376v2.617H26.829v-2.617h8.638a1.309 1.309 0 100-2.618h-8.862L23.52 8.052l9.188 6.125z"/></symbol>
<symbol id="envelope" viewBox="0 0 32 26"><path d="M4 1h24c1.65 0 3 1.35 3 3v18c0 1.65-1.35 3-3 3H4c-1.65 0-3-1.35-3-3V4c0-1.65 1.35-3 3-3z" stroke-width="2" stroke-linecap="round" stroke-linejoin="round"/><path d="M31 4L16 14.5 1 4" stroke-width="2" stroke-linecap="round" stroke-linejoin="round"/></symbol>
<symbol id="info" viewBox="0 0 17 17"><path d="M8.5 16a7.5 7.5 0 100-15 7.5 7.5 0 000 15zM8.5 11.5v-3M8.5 5.5h.009" stroke-width="1.8" stroke-linecap="round" stroke-linejoin="round"/></symbol>
<symbol id="light" viewBox="0 0 15 15"><path d="M14.932 7.38l-.884-.53a.864.864 0 01-.25-1.255l.614-.828a.14.14 0 00-.092-.222l-1.02-.152a.864.864 0 01-.71-1.063l.25-1a.14.14 0 00-.17-.17l-1 .25a.863.863 0 01-1.063-.71L10.455.68a.14.14 0 00-.222-.092l-.828.614A.864.864 0 018.15.952L7.62.068a.14.14 0 00-.24 0l-.53.884a.864.864 0 01-1.255.25L4.767.588a.14.14 0 00-.222.091L4.393 1.7a.864.864 0 01-1.063.711l-1-.25a.14.14 0 00-.17.17l.25 1a.864.864 0 01-.71 1.063l-1.02.152a.14.14 0 00-.092.222l.614.828a.864.864 0 01-.25 1.255l-.884.53a.14.14 0 000 .24l.884.53a.864.864 0 01.25 1.255l-.614.828a.14.14 0 00.092.222l1.02.152a.863.863 0 01.71 1.063l-.25 1a.14.14 0 00.17.17l1-.25a.864.864 0 011.063.71l.152 1.02a.14.14 0 00.222.092l.828-.614a.863.863 0 011.255.25l.53.884a.14.14 0 00.24 0l.53-.884a.864.864 0 011.255-.25l.828.614a.14.14 0 00.222-.092l.152-1.02a.864.864 0 011.063-.71l1 .25a.14.14 0 00.17-.17l-.25-1a.863.863 0 01.71-1.063l1.02-.152a.14.14 0 00.092-.222l-.614-.828a.864.864 0 01.25-1.255l.884-.53a.14.14 0 000-.24zM12.11 8.42a4.681 4.681 0 01-3.69 3.69 4.704 4.704 0 01-5.528-5.53 4.681 4.681 0 013.69-3.69 4.704 4.704 0 015.528 5.53z"/></symbol>
<symbol id="like" viewBox="0 0 19 19"><path d="M5.25 18H2.7A1.7 1.7 0 011 16.3v-5.95a1.7 1.7 0 011.7-1.7h2.55m5.95-1.7v-3.4A2.55 2.55 0 008.65 1l-3.4 7.65V18h9.588a1.7 1.7 0 001.7-1.445l1.173-7.65a1.7 1.7 0 00-1.7-1.955H11.2z" stroke-width="1.5" stroke-linecap="round" stroke-linejoin="round"/></symbol>
<symbol id="measure" viewBox="0 0 70 52"><path d="M23.891 25.292c5.773 0 10.481-3.545 10.481-7.888 0-4.344-4.694-7.89-10.481-7.89S13.41 13.06 13.41 17.405c0 4.343 4.708 7.888 10.481 7.888zm0-12.975c4.204 0 7.679 2.326 7.679 5.086 0 2.76-3.518 5.087-7.679 5.087-4.162 0-7.68-2.326-7.68-5.087 0-2.76 3.518-5.1 7.68-5.1v.014z"/><path d="M68.325 31.976H47.642V17.39C47.642 7.805 36.98 0 23.822 0 10.662 0 0 7.805 0 17.389v17.235c0 8.828 9.038 16.115 20.682 17.222h.239c.966.084 1.947.154 2.942.154h44.462c.773 0 1.4-.628 1.4-1.401V33.377c0-.773-.627-1.4-1.4-1.4zM23.89 2.816c11.56 0 21.019 6.544 21.019 14.588 0 8.043-9.402 14.586-21.019 14.586-11.616 0-21.018-6.543-21.018-14.587 0-8.043 9.472-14.587 21.018-14.587zM44.91 25.573v6.403h-8.127a21.13 21.13 0 008.056-6.403h.071zm22.013 23.624h-2.802v-7.09a1.402 1.402 0 00-2.803 0v7.104h-5.605v-3.853a1.402 1.402 0 00-2.802 0v3.853h-5.605v-3.853a1.402 1.402 0 00-2.803 0v3.853h-5.605v-7.104a1.402 1.402 0 00-2.803 0v7.104H30.73v-3.853a1.402 1.402 0 00-2.803 0v3.853H22.321v-3.853a1.402 1.402 0 00-2.803 0v3.517c-9.457-1.401-16.575-7.258-16.575-14.264v-9.038c4.007 5.478 11.896 9.205 21.018 9.205h42.962v14.42z"/></symbol>
<symbol id="money" viewBox="0 0 71 71"><path d="M32.25 48.156a1.4 1.4 0 000-1.962 1.361 1.361 0 00-1.938 0 1.401 1.401 0 000 1.962c.536.54 1.403.54 1.939 0zM25.762 15.25c0 8.408 6.761 15.25 15.073 15.25 8.311 0 15.073-6.842 15.073-15.25C55.908 6.84 49.146 0 40.835 0c-8.312 0-15.073 6.841-15.073 15.25zm27.405 0c0 6.88-5.532 12.477-12.332 12.477-6.8 0-12.333-5.597-12.333-12.477S34.034 2.773 40.835 2.773c6.8 0 12.332 5.597 12.332 12.477z"/><path d="M15.783 70.59a1.359 1.359 0 001.934.011l6.644-6.621c1.128-1.142 1.472-2.833.975-4.302l1.43-1.395a4.062 4.062 0 012.853-1.166h18.216c3.232 0 6.286-1.256 8.602-3.536.095-.093-.723.882 12.427-15.02 1.951-2.334 1.66-5.84-.65-7.816a5.45 5.45 0 00-7.69.619l-8.086 8.408a5.483 5.483 0 00-4.26-2.064h-15.28a17.5 17.5 0 00-6.863-1.386c-6.598 0-12.36 3.083-15.452 8.864a4.063 4.063 0 00-3.665 1.15L.4 52.95a1.398 1.398 0 00-.002 1.955L15.783 70.59zm10.252-31.496c2.099 0 4.128.428 6.033 1.27.173.078.36.117.549.117h15.56c1.486 0 2.741 1.226 2.741 2.772 0 1.53-1.229 2.773-2.74 2.773h-11.18c-.757 0-1.37.621-1.37 1.386 0 .767.613 1.387 1.37 1.387h11.18c3.022 0 5.48-2.488 5.48-5.546 0-.243-.017-.485-.047-.724 7.821-8.135 8.924-9.278 8.971-9.335a2.728 2.728 0 013.864-.33c1.154.987 1.3 2.74.321 3.913l-12.29 14.865a9.484 9.484 0 01-6.642 2.702H29.619c-1.786 0-3.475.691-4.757 1.944l-1.165 1.137-10.735-10.86c2.51-4.762 7.217-7.47 13.073-7.47zm-17.177 9.2a1.355 1.355 0 011.697-.195c.237.147-.444-.48 11.868 11.959a1.4 1.4 0 01.008 1.954l-5.664 5.645L3.303 53.93l5.555-5.637zM39.19 6.932v1.624a4.162 4.162 0 00-2.74 3.92c0 2.294 1.844 4.16 4.11 4.16.756 0 1.37.622 1.37 1.386a1.38 1.38 0 01-1.37 1.386c-.584 0-1.217-.372-1.778-1.048a1.36 1.36 0 00-1.931-.17 1.397 1.397 0 00-.167 1.954c.732.881 1.594 1.496 2.507 1.806v1.617c0 .766.613 1.387 1.37 1.387.756 0 1.37-.62 1.37-1.387v-1.624a4.164 4.164 0 002.74-3.92c0-2.294-1.843-4.16-4.11-4.16a1.38 1.38 0 01-1.37-1.386 1.38 1.38 0 011.37-1.387c.485 0 .998.251 1.482.725a1.36 1.36 0 001.938-.032 1.398 1.398 0 00-.032-1.96c-.696-.681-1.392-1.066-2.018-1.277V6.932c0-.766-.614-1.387-1.37-1.387-.757 0-1.37.62-1.37 1.387z"/></symbol>
<symbol id="phone-arrow" viewBox="0 0 15 15"><path d="M11.432 1l2.471 2.471-2.47 2.47M8.961 3.471h4.942M13.286 10.834v1.854a1.234 1.234 0 01-1.347 1.235 12.225 12.225 0 01-5.331-1.896A12.047 12.047 0 012.9 8.32a12.225 12.225 0 01-1.896-5.356 1.236 1.236 0 011.23-1.346h1.853A1.235 1.235 0 015.323 2.68c.078.593.223 1.176.432 1.736a1.235 1.235 0 01-.278 1.304l-.784.784a9.884 9.884 0 003.706 3.707l.785-.785a1.236 1.236 0 011.303-.278c.56.21 1.143.354 1.736.432a1.235 1.235 0 011.063 1.254z" stroke-width="1.5" stroke-linecap="round" stroke-linejoin="round"/></symbol>
<symbol id="phone-call" viewBox="0 0 31 31"><path d="M18.514 6.543a6.72 6.72 0 013.49 1.9 6.98 6.98 0 011.856 3.573M18.514 1a12.071 12.071 0 017.264 3.571c1.955 2 3.188 4.62 3.497 7.431M27.921 23.06v4.157c.002.386-.075.768-.226 1.122a2.77 2.77 0 01-.65.932c-.279.26-.607.46-.964.583-.357.124-.735.17-1.11.135a26.394 26.394 0 01-11.682-4.254 26.717 26.717 0 01-8.122-8.314A27.844 27.844 0 011.01 5.407c-.034-.384.01-.77.13-1.135.12-.364.313-.7.567-.983a2.71 2.71 0 01.905-.667 2.654 2.654 0 011.092-.236h4.06a2.67 2.67 0 011.793.67 2.79 2.79 0 01.915 1.713c.171 1.33.49 2.637.947 3.894.183.496.222 1.035.114 1.553a2.791 2.791 0 01-.723 1.37l-1.719 1.76a21.921 21.921 0 008.122 8.315l1.72-1.76c.367-.373.832-.63 1.338-.74a2.648 2.648 0 011.517.116c1.228.47 2.505.795 3.804.97a2.691 2.691 0 011.688.953c.429.519.657 1.18.64 1.86z" stroke-width="2" stroke-linecap="round" stroke-linejoin="round"/></symbol>
<symbol id="phone" viewBox="0 0 1792 1792"><path d="M1600 1240q0 27-10 70.5t-21 68.5q-21 50-122 106-94 51-186 51-27 0-53-3.5t-57.5-12.5-47-14.5-55.5-20.5-49-18q-98-35-175-83-127-79-264-216T344 904q-48-77-83-175-3-9-18-49t-20.5-55.5-14.5-47-12.5-57.5-3.5-53q0-92 51-186 56-101 106-122 25-11 68.5-21t70.5-10q14 0 21 3 18 6 53 76 11 19 30 54t35 63.5 31 53.5q3 4 17.5 25t21.5 35.5 7 28.5q0 20-28.5 50t-62 55-62 53-28.5 46q0 9 5 22.5t8.5 20.5 14 24 11.5 19q76 137 174 235t235 174q2 1 19 11.5t24 14 20.5 8.5 22.5 5q18 0 46-28.5t53-62 55-62 50-28.5q14 0 28.5 7t35.5 21.5 25 17.5q25 15 53.5 31t63.5 35 54 30q70 35 76 53 3 7 3 21z"/></symbol>
<symbol id="placemark" viewBox="0 0 27 32"><path d="M25.546 13.273C25.546 22.818 13.273 31 13.273 31S1 22.818 1 13.273a12.273 12.273 0 0124.546 0z" stroke-width="2" stroke-linecap="round" stroke-linejoin="round"/><path d="M13.273 17.364a4.091 4.091 0 100-8.182 4.091 4.091 0 000 8.182z" stroke-width="2" stroke-linecap="round" stroke-linejoin="round"/></symbol>
<symbol id="quotes" viewBox="0 0 19 17"><path d="M19 6.246c0 3.477-.495 6.118-1.486 7.92-.991 1.804-2.628 2.748-4.912 2.834l-1.228-2.511c1.293-.13 2.197-.752 2.714-1.868.517-1.116.776-2.919.776-5.409h-3.425V0H19v6.246zm-11.374 0c0 3.477-.496 6.118-1.487 7.92C5.15 15.97 3.511 16.915 1.228 17L0 14.489c1.293-.13 2.197-.752 2.714-1.868.517-1.116.776-2.919.776-5.409H.065V0h7.56v6.246z"/></symbol>
<symbol id="repair" viewBox="0 0 60 60"><path d="M40.203 18.182c-.64 0-1.16.523-1.16 1.171 0 .647.52 1.172 1.16 1.172.641 0 1.16-.525 1.16-1.172 0-.648-.519-1.171-1.16-1.171zM19.142 39.474c-.64 0-1.159.525-1.159 1.172 0 .648.518 1.171 1.16 1.171.64 0 1.159-.523 1.159-1.172 0-.646-.52-1.171-1.16-1.171z"/><path d="M57.905 7.21a1.15 1.15 0 00-1.085.315l-4.806 4.897h-2.303l-2.536-2.656V7.404l4.736-4.86A1.18 1.18 0 0051.456.61a11.447 11.447 0 00-3.702-.61c-3.775 0-7.205 1.779-9.41 4.882-2.064 2.905-2.7 6.465-1.788 9.872l-8.538 8.632L13.792 8.973V6.144c0-.411-.214-.793-.563-1.005L5.034.167A1.149 1.149 0 003.62.343L.34 3.657c-.375.38-.447.97-.174 1.432l4.917 8.286c.21.353.587.569.994.57h2.797L23.1 28.359l-8.506 8.6c-3.37-.922-6.893-.278-9.767 1.81C1.759 40.997 0 44.464 0 48.281c0 1.28.203 2.539.604 3.741.129.385.445.676.836.767a1.15 1.15 0 001.086-.315l4.804-4.897h2.317l2.64 2.669v2.342l-4.844 4.857a1.18 1.18 0 00-.312 1.098c.09.395.378.715.759.845 1.19.405 2.435.61 3.7.61 3.776 0 7.204-1.778 9.409-4.88 2.065-2.906 2.702-6.467 1.79-9.874l6.832-6.907 1.565 1.719-.718.725a1.181 1.181 0 000 1.658 1.151 1.151 0 001.639 0l.65-.657L47.44 57.905c.01.012.022.023.034.035a6.9 6.9 0 009.836 0c2.71-2.742 2.71-7.203 0-9.945l-.036-.034L41.3 33.145l.643-.65a1.18 1.18 0 000-1.657 1.15 1.15 0 00-1.64 0l-.713.722-1.703-1.58 6.864-6.94c.976.264 1.983.397 3.003.397 6.392 0 11.59-5.257 11.59-11.718 0-1.28-.202-2.54-.604-3.742a1.163 1.163 0 00-.835-.768zm-47.73 4.735a1.14 1.14 0 00-.82-.332H6.734L2.62 4.667l1.998-2.02 6.857 4.16v2.65c0 .31.122.608.338.828l14.565 14.759-1.639 1.657-14.564-14.757zm29.484 22.86l16.027 14.864a4.732 4.732 0 01-.017 6.614 4.6 4.6 0 01-6.541.016l-14.73-16.176 5.261-5.319zm-1.71-1.587l-5.123 5.179-1.565-1.718 4.985-5.041 1.703 1.58zm9.805-12.125a9.171 9.171 0 01-2.962-.488 1.152 1.152 0 00-1.19.282L20.66 44.082a1.18 1.18 0 00-.278 1.203 9.364 9.364 0 01-1.266 8.466c-1.762 2.48-4.505 3.904-7.524 3.904-.34 0-.677-.019-1.01-.055l3.68-3.693c.22-.22.343-.52.343-.832V49.76c0-.31-.122-.609-.34-.829l-3.318-3.354a1.153 1.153 0 00-.82-.344H6.849c-.31 0-.606.125-.823.347l-3.653 3.722a9.586 9.586 0 01-.054-1.022c0-3.053 1.407-5.825 3.861-7.608 2.46-1.787 5.513-2.253 8.374-1.278a1.15 1.15 0 001.19-.282l22.942-23.196c.312-.315.42-.78.28-1.202a9.36 9.36 0 011.262-8.464c1.764-2.482 4.507-3.906 7.527-3.906.35 0 .697.02 1.04.058l-3.604 3.7c-.214.218-.334.514-.334.821v3.316c0 .303.117.595.325.813l3.203 3.355c.218.23.52.358.834.358h3.28c.308 0 .604-.124.822-.346l3.652-3.722c.037.338.055.679.055 1.022 0 5.169-4.16 9.374-9.273 9.374z"/><path d="M36.105 21.838L21.601 36.503a1.181 1.181 0 000 1.657 1.15 1.15 0 001.639 0l14.505-14.664a1.18 1.18 0 000-1.658 1.15 1.15 0 00-1.64 0zM50.752 52.97a1.15 1.15 0 001.64-.004c.452-.458.45-1.2-.003-1.657L41.941 40.78a1.15 1.15 0 00-1.639.003 1.18 1.18 0 00.003 1.657l10.447 10.53z"/></symbol>
<symbol id="reward" viewBox="0 0 53 70"><path d="M5.629 25.977c0 11.308 9.2 20.507 20.508 20.507s20.508-9.2 20.508-20.507c0-11.309-9.2-20.508-20.508-20.508s-20.508 9.2-20.508 20.508zM26.137 8.203c9.8 0 17.773 7.973 17.773 17.774 0 9.8-7.973 17.773-17.773 17.773S8.363 35.777 8.363 25.977 16.336 8.203 26.137 8.203z"/><path d="M13.475 23.54l5.3 5.221-1.22 7.339a1.367 1.367 0 001.979 1.438l6.603-3.43 6.602 3.43a1.367 1.367 0 001.978-1.438l-1.219-7.339 5.3-5.221a1.366 1.366 0 00-.757-2.326l-7.354-1.107-3.328-6.655a1.367 1.367 0 00-2.445 0l-3.328 6.655-7.355 1.107a1.367 1.367 0 00-.756 2.326zm9.22-.835c.44-.066.82-.342 1.02-.74l2.422-4.845 2.421 4.845c.2.398.58.674 1.02.74l5.353.806-3.858 3.8a1.37 1.37 0 00-.389 1.198l.888 5.341-4.806-2.495a1.364 1.364 0 00-1.26 0l-4.805 2.495.887-5.34a1.366 1.366 0 00-.389-1.2l-3.857-3.799 5.353-.806zM27.504 1.367a1.367 1.367 0 11-2.734 0 1.367 1.367 0 012.734 0z"/><path d="M19.693.806C8.193 3.74.16 14.092.16 25.976a25.895 25.895 0 008.551 19.262L.475 59.754a1.368 1.368 0 001.467 2.014l9.354-1.943 3.288 9.265a1.367 1.367 0 002.476.218l9.077-15.958 9.076 15.958a1.367 1.367 0 002.477-.218l3.287-9.265 9.354 1.943a1.368 1.368 0 001.467-2.014l-8.236-14.516a25.895 25.895 0 008.55-19.262c0-11.884-8.031-22.235-19.532-25.17a1.367 1.367 0 10-.676 2.649c10.289 2.627 17.475 11.888 17.475 22.521 0 12.942-10.51 23.242-23.242 23.242-12.74 0-23.242-10.308-23.242-23.242 0-10.633 7.185-19.894 17.474-22.521a1.368 1.368 0 00-.676-2.65zm-3.532 64.553l-2.687-7.572a1.367 1.367 0 00-1.566-.881l-7.564 1.57 6.519-11.488a26.032 26.032 0 0012.981 4.863l-7.683 13.508zm24.204-8.453a1.368 1.368 0 00-1.566.881l-2.687 7.572L28.43 51.85c4.68-.417 9.18-2.1 12.982-4.863l6.518 11.488-7.564-1.57z"/></symbol>
<symbol id="ruler" viewBox="0 0 17 13"><path fill-rule="evenodd" clip-rule="evenodd" d="M11.672 10.43V5.63h-.003a5.836 5.836 0 10-5.833 6.043h9.727v.828h1.242v-2.069h-5.133zM8.692 5.63a2.815 2.815 0 11-5.63 0 2.815 2.815 0 015.63 0z"/></symbol>
<symbol id="search" viewBox="0 0 17 17"><path d="M7.667 14.333A6.667 6.667 0 107.667 1a6.667 6.667 0 000 13.333zM16 16l-3.625-3.625" stroke-width="2" stroke-linecap="round" stroke-linejoin="round"/></symbol>
<symbol id="smartphone" viewBox="0 0 9 15"><path d="M6.94 0H1.66C.763 0 0 .702 0 1.564v11.874C0 14.3.746 15 1.644 15l5.288-.005c.898 0 1.632-.701 1.632-1.563l.007-11.87C8.571.7 7.841 0 6.94 0zM3.537.938H5.07a.24.24 0 01.244.234.24.24 0 01-.244.234H3.537a.24.24 0 01-.244-.234c0-.13.11-.234.244-.234zm-.92.074a.26.26 0 01.345 0 .233.233 0 01.072.167.232.232 0 01-.072.165.252.252 0 01-.345 0 .232.232 0 01-.07-.165c-.001-.063.025-.124.07-.167zm1.637 13.524c-.403 0-.73-.315-.73-.702 0-.387.327-.701.73-.701.403 0 .73.314.73.701 0 .387-.327.702-.73.702zm3.56-1.88H.854V2.226h6.96v10.43z"/></symbol>
<symbol id="stopwatch" viewBox="0 0 57 69"><path d="M50.379 22.991l2.9-2.901a4.047 4.047 0 000-5.717 4.047 4.047 0 00-5.716 0l-3.098 3.097a28.308 28.308 0 00-10.774-4.556v-4.02h2.696c.744 0 1.347-.603 1.347-1.347V4.043A4.047 4.047 0 0033.691 0h-10.78a4.047 4.047 0 00-4.044 4.043v3.504c0 .744.604 1.348 1.348 1.348h2.695v4.02a28.302 28.302 0 00-10.774 4.555L9.04 14.373a4.047 4.047 0 00-5.717 0 4.047 4.047 0 000 5.717l2.9 2.901A28.271 28.271 0 000 40.7C0 56.304 12.696 69 28.3 69c15.606 0 28.302-12.696 28.302-28.3 0-6.46-2.202-12.7-6.223-17.709zm-.91-6.713a1.35 1.35 0 011.905 0 1.35 1.35 0 010 1.906l-2.785 2.784a28.63 28.63 0 00-1.97-1.84l2.85-2.85zM21.561 4.043c0-.743.605-1.348 1.348-1.348h10.781c.744 0 1.348.605 1.348 1.348v2.156H21.562V4.043zm9.434 4.852v3.63a28.994 28.994 0 00-5.39 0v-3.63h5.39zM5.227 16.278a1.35 1.35 0 011.906 0l2.85 2.85a28.642 28.642 0 00-1.97 1.84l-2.786-2.784a1.35 1.35 0 010-1.906zm23.074 50.027c-14.119 0-25.606-11.487-25.606-25.606a25.574 25.574 0 016.366-16.898 25.583 25.583 0 0115.396-8.422 26.027 26.027 0 017.686 0 25.587 25.587 0 0115.397 8.422A25.575 25.575 0 0153.906 40.7c0 14.119-11.486 25.606-25.605 25.606z"/><path d="M28.3 44.742a4.047 4.047 0 004.044-4.043 4.05 4.05 0 00-2.696-3.811v-9.665a1.348 1.348 0 10-2.695 0v9.665a4.05 4.05 0 00-2.695 3.811 4.047 4.047 0 004.043 4.043zm0-5.39a1.349 1.349 0 010 2.695 1.349 1.349 0 01-1.347-1.348c0-.743.605-1.347 1.348-1.347z"/><path d="M42.657 26.481a1.241 1.241 0 00-.145-.145 20.287 20.287 0 00-8.494-5.029 1.347 1.347 0 10-.763 2.585c2.36.697 4.56 1.902 6.437 3.51l-.91.909a1.349 1.349 0 001.907 1.906l.91-.911a17.354 17.354 0 014.17 10.045h-1.296a1.348 1.348 0 000 2.696h1.296a17.353 17.353 0 01-4.17 10.045l-.91-.911a1.349 1.349 0 00-1.907 1.906l.912.911a17.36 17.36 0 01-10.046 4.17V56.87a1.348 1.348 0 10-2.695 0v1.296a17.356 17.356 0 01-10.045-4.169l.911-.911a1.348 1.348 0 10-1.906-1.906l-.911.91a17.356 17.356 0 01-4.17-10.044h1.297a1.348 1.348 0 100-2.696h-1.296c.282-3.72 1.73-7.21 4.169-10.045l.91.911c.264.263.609.395.954.395s.69-.132.953-.395a1.349 1.349 0 000-1.906l-.91-.91a17.556 17.556 0 016.438-3.509 1.348 1.348 0 10-.764-2.585 20.282 20.282 0 00-8.492 5.027 1.348 1.348 0 00-.08.074c-.024.023-.044.047-.065.072-3.78 3.814-5.86 8.86-5.86 14.219s2.08 10.404 5.859 14.218c.02.024.042.05.065.072.024.024.048.045.072.066 3.814 3.778 8.86 5.859 14.219 5.859s10.404-2.08 14.218-5.858c.024-.022.049-.043.072-.067.023-.022.044-.047.065-.07 3.78-3.815 5.86-8.86 5.86-14.22 0-5.36-2.08-10.404-5.859-14.218z"/><path d="M28.3 23.18a1.348 1.348 0 100-2.697 1.348 1.348 0 000 2.697z"/></symbol>
<symbol id="temperature" viewBox="0 0 10 18"><path d="M8.15 10.33V3.221C8.15 1.442 6.633 0 4.753 0 2.876 0 1.363 1.386 1.363 3.165v7.12A4.515 4.515 0 000 13.493C0 15.981 2.131 18 4.76 18c2.63 0 4.762-2.02 4.762-4.508 0-1.233-.53-2.348-1.373-3.163zm-3.39 6.384c-1.876 0-3.403-1.445-3.403-3.222 0-.85.366-1.714.978-2.309l.385-.374V3.166c0-1.055.894-1.88 2.034-1.88 1.124 0 2.038.868 2.038 1.936V10.854l.388.375c.635.615.985 1.418.985 2.263 0 1.777-1.527 3.222-3.404 3.222z"/><path d="M5.44 11.647V5.786H4.081v5.861c-.678.374-1.357.813-1.357 1.845 0 1.064.913 1.929 2.036 1.929 1.122 0 2.036-.865 2.036-1.929 0-1.031-.679-1.47-1.358-1.845z"/></symbol>
<symbol id="user" viewBox="0 0 14 15"><path d="M12.556 14v-1.444a2.889 2.889 0 00-2.89-2.89H3.89A2.889 2.889 0 001 12.557V14M6.778 6.778a2.889 2.889 0 100-5.778 2.889 2.889 0 000 5.778z" stroke-width="1.8" stroke-linecap="round" stroke-linejoin="round"/></symbol>
<symbol id="volume" viewBox="0 0 13 13"><path d="M7.471.176a.427.427 0 00-.453.051L2.849 3.562H.857A.859.859 0 000 4.42v3.429c0 .473.385.857.857.857H2.85l4.168 3.335a.433.433 0 00.454.05.428.428 0 00.243-.385V.562a.43.43 0 00-.243-.386zM9.883 3.103a.43.43 0 00-.602.61c.648.64 1.004 1.5 1.004 2.42 0 .922-.356 1.782-1.004 2.421a.429.429 0 00.602.609 4.215 4.215 0 001.26-3.03c0-1.152-.447-2.229-1.26-3.03z"/><path d="M11.092 1.895a.43.43 0 00-.604.609A5.074 5.074 0 0112 6.134a5.072 5.072 0 01-1.51 3.629.43.43 0 00-.003.606.43.43 0 00.606.002 5.92 5.92 0 001.764-4.237c0-1.606-.625-3.11-1.764-4.239z"/></symbol>
</svg>