<svg width="50" height="50" viewBox="0 0 50 50" fill="none" xmlns="http://www.w3.org/2000/svg"><g clip-path="url(#clip0)"><path d="M18.549 46.774H7.259v-.806a3.229 3.229 0 00-3.226-3.226h-.807V20.968h19.355v21.774h-.807a3.229 3.229 0 00-3.226 3.226v.806z" fill="#FD8F01"/><path d="M31.452 22.58a2.422 2.422 0 002.42-2.419V2.42A2.422 2.422 0 0031.452 0H2.42A2.422 2.422 0 00.001 2.42V50h25.806V22.58h5.645zm.807-14.516H1.614V5.645h30.645v2.42zM2.42 1.613h29.033c.445 0 .806.362.806.806v1.613H1.614V2.42c0-.444.361-.806.806-.806zm-.806 8.064h30.645v10.484a.807.807 0 01-.806.807H2.42a.807.807 0 01-.806-.807V9.677zM18.549 27.42a5.652 5.652 0 01-5.645 5.646 5.652 5.652 0 01-5.645-5.646 5.645 5.645 0 012.758-4.838h5.774a5.645 5.645 0 012.758 4.838zm5.645 20.968H1.614V22.432c.253.09.522.149.806.149h5.1a7.244 7.244 0 00-1.873 4.838c0 4.002 3.256 7.258 7.258 7.258 4.002 0 7.258-3.256 7.258-7.258a7.244 7.244 0 00-1.873-4.838h5.905v25.806z" fill="#222"/><path d="M24.194 19.355c.57 0 1.124-.16 1.615-.448.476.277 1.02.448 1.61.448a3.229 3.229 0 003.226-3.226 3.229 3.229 0 00-3.226-3.226c-.59 0-1.134.17-1.61.448a3.192 3.192 0 00-1.615-.448 3.229 3.229 0 00-3.226 3.226 3.229 3.229 0 003.226 3.226zm4.838-3.226a1.614 1.614 0 01-3.226 0 1.614 1.614 0 013.226 0zm-4.838-1.613c.14 0 .279.026.414.064a3.174 3.174 0 00-.414 1.549c0 .565.158 1.088.414 1.55a1.54 1.54 0 01-.414.063 1.614 1.614 0 010-3.226zM38.71 27.42c-6.226 0-11.29 5.064-11.29 11.29 0 6.225 5.064 11.29 11.29 11.29C44.936 50 50 44.935 50 38.71c0-6.226-5.065-11.29-11.29-11.29zm0 20.967c-5.337 0-9.678-4.341-9.678-9.677 0-5.337 4.341-9.678 9.678-9.678 5.336 0 9.677 4.341 9.677 9.678 0 5.336-4.341 9.677-9.677 9.677z" fill="#222"/><path d="M39.92 32.258h-.404v-1.613h-1.613v1.613H37.5a3.634 3.634 0 00-3.63 3.629c0 2 1.629 3.63 3.63 3.63h2.419c1.112 0 2.016.904 2.016 2.015a2.018 2.018 0 01-2.016 2.016h-2.42a2.018 2.018 0 01-2.016-2.016v-.403h-1.612v.403a3.634 3.634 0 003.629 3.63h.403v1.612h1.613v-1.613h.403c2 0 3.63-1.628 3.63-3.629 0-2-1.63-3.629-3.63-3.629H37.5a2.018 2.018 0 01-2.015-2.016c0-1.111.904-2.016 2.016-2.016h2.42c1.111 0 2.015.904 2.015 2.016v.403h1.613v-.403c0-2-1.628-3.629-3.629-3.629zM37.903 4.032v16.936h1.613V4.032l.968 1.29 1.29-.967L38.71.269l-3.065 4.086 1.29.968.968-1.29zm1.613 18.548h-1.613V25h1.613v-2.42zm6.452-13.709v14.516h1.612V8.871l.968 1.29 1.29-.967-3.064-4.087-3.065 4.087 1.29.967.968-1.29zM47.58 25h-1.612v2.42h1.613V25z" fill="#222"/></g><defs><clipPath id="clip0"><path fill="#fff" d="M0 0h50v50H0z"/></clipPath></defs></svg>