<svg width="54" height="54" viewBox="0 0 54 54" fill="none" xmlns="http://www.w3.org/2000/svg">
<path d="M26.9991 41.8067C35.1766 41.8067 41.8058 35.1775 41.8058 27C41.8058 18.8225 35.1766 12.1934 26.9991 12.1934C18.8216 12.1934 12.1924 18.8225 12.1924 27C12.1924 35.1775 18.8216 41.8067 26.9991 41.8067Z" fill="#FD8F01"/>
<path d="M14.8067 24.3867C6.64209 24.3867 0 31.0288 0 39.1934C0 47.358 6.64209 54.0001 14.8065 54.0001C22.9709 54.0001 29.613 47.358 29.613 39.1934C29.613 31.0288 22.9711 24.3867 14.8067 24.3867ZM14.8067 52.2579C7.6029 52.2579 1.74214 46.3972 1.74214 39.1932C1.74214 31.9892 7.6029 26.1285 14.8067 26.1285C22.0105 26.1285 27.8712 31.9894 27.8712 39.1934C27.8712 46.3974 22.0105 52.2579 14.8067 52.2579Z" fill="#222222"/>
<path d="M16.1133 30.4841H15.6778V27.8711H13.9358V30.4841H13.5003C10.8596 30.4841 8.70996 32.6337 8.70996 35.2744C8.70996 37.9151 10.8596 40.0648 13.5003 40.0648H16.1131C17.7941 40.0648 19.1615 41.4321 19.1615 43.1131C19.1615 44.7941 17.7941 46.1615 16.1131 46.1615H13.5003C11.8193 46.1615 10.4519 44.7941 10.4519 43.1131V41.8067H8.70996V43.1131C8.70996 45.754 10.8596 47.9035 13.5003 47.9035H13.9358V50.5165H15.6778V47.9035H16.1133C18.754 47.9035 20.9036 45.7538 20.9036 43.1131C20.9036 40.4724 18.754 38.3228 16.1133 38.3228H13.5003C11.8193 38.3228 10.4519 36.9554 10.4519 35.2744C10.4519 33.5934 11.8193 32.2261 13.5003 32.2261H16.1131C17.7941 32.2261 19.1615 33.5934 19.1615 35.2744V36.5809H20.9034V35.2744C20.9036 32.6335 18.754 30.4841 16.1133 30.4841Z" fill="#222222"/>
<path d="M54.0006 5.22586H49.117C49.9671 4.73718 50.5167 3.83322 50.5167 2.80459C50.5167 1.25774 49.2592 0 47.7121 0C46.5153 0 45.3405 0.411937 44.4058 1.16019L41.8069 3.23919L39.2079 1.15926C38.2727 0.411937 37.0986 0 35.9018 0C34.3549 0 33.0972 1.25774 33.0972 2.80459C33.0972 3.83415 33.6468 4.73737 34.4969 5.22586H29.6133V12.1937H32.2261V27.0003H39.1939H44.4198H51.3876V12.1937H54.0004L54.0006 5.22586ZM42.678 6.96781V10.4517H40.9361V6.96781H41.7113L41.8071 6.98862L41.903 6.96781H42.678ZM45.4949 2.51974C46.122 2.01806 46.9092 1.74195 47.7123 1.74195C48.2985 1.74195 48.7749 2.21836 48.7749 2.80459C48.7749 3.30627 48.4327 3.73214 47.9431 3.84103L42.267 5.10211L45.4949 2.51974ZM35.9018 1.74195C36.7048 1.74195 37.4921 2.01806 38.1192 2.51974L41.3471 5.10211L35.671 3.84103C35.1816 3.73214 34.8391 3.30534 34.8391 2.80459C34.8393 2.21836 35.3155 1.74195 35.9018 1.74195ZM31.3554 10.4517V6.96781H39.1941V10.4517H32.2263H31.3554ZM33.9683 25.2584V12.1937H39.1941V25.2584H33.9683ZM40.9361 25.2584V12.1937H42.678V25.2584H40.9361ZM49.6458 25.2584H44.42V12.1937H49.6458V25.2584ZM52.2587 10.4517H51.3878H44.42V6.96781H52.2587V10.4517Z" fill="#222222"/>
<path d="M22.8353 8.29975L22.4574 6.59961C14.5724 8.34844 8.34764 14.5734 6.59863 22.4583L8.29971 22.8355C9.9023 15.6089 15.6079 9.90309 22.8353 8.29975Z" fill="#222222"/>
<path d="M31.165 45.7016L31.543 47.4027C39.4279 45.6529 45.6519 39.4289 47.4017 31.5439L45.7006 31.166C44.098 38.3934 38.3924 44.099 31.165 45.7016Z" fill="#222222"/>
</svg>
