<svg width="27" height="26" viewBox="0 0 27 26" fill="none" xmlns="http://www.w3.org/2000/svg"><rect x=".667" width="26" height="26" rx="3" fill="#D63A1D"/><path d="M17.052 4.333H12.92c-1.842 0-3.117.404-4.265 1.352-.903.779-1.441 1.91-1.441 3.027 0 1.722 1.312 3.55 3.743 3.55.234 0 .493-.024.721-.045l-.033.082c-.098.234-.19.455-.19.8 0 .671.323 1.085.636 1.485l.04.051-.07.005c-1.004.069-2.873.197-4.238 1.036-1.613.958-1.738 2.353-1.738 2.757 0 1.61 1.5 3.233 4.85 3.233 3.895 0 5.933-2.149 5.933-4.271 0-1.57-.92-2.346-1.898-3.169l-.824-.64c-.255-.212-.572-.475-.572-.961 0-.479.317-.794.597-1.073l.03-.03c.89-.7 1.899-1.496 1.899-3.215 0-1.73-1.08-2.623-1.6-3.052h1.372a.088.088 0 00.047-.014l1.182-.743a.09.09 0 00-.048-.165zM12.04 20.719c-2.375 0-3.97-1.109-3.97-2.76 0-1.077.652-1.86 1.937-2.326 1.03-.347 2.358-.364 2.371-.364.225 0 .338 0 .518.023 1.662 1.182 2.46 1.803 2.46 2.985 0 1.507-1.27 2.442-3.316 2.442zm-.023-9.09c-1.993 0-2.82-2.62-2.82-4.022 0-.713.163-1.26.496-1.674.362-.453.982-.746 1.58-.746 1.83 0 2.841 2.46 2.841 4.16 0 .267 0 1.083-.563 1.65a2.312 2.312 0 01-1.534.632zm10.829.8h-2.178v-2.17a.09.09 0 00-.09-.09h-.937a.09.09 0 00-.09.09v2.17h-2.167a.09.09 0 00-.09.09v.949c0 .05.041.09.09.09h2.168v2.184c0 .05.04.09.09.09h.936c.05 0 .09-.04.09-.09v-2.185h2.178c.05 0 .09-.04.09-.09v-.949a.09.09 0 00-.09-.089z" fill="#FFFFFE"/></svg>