<svg width="17" height="17" viewBox="0 0 17 17" fill="none" xmlns="http://www.w3.org/2000/svg"><path d="M11.688 0H5.311A5.313 5.313 0 000 5.313v6.375A5.313 5.313 0 005.313 17h6.375A5.313 5.313 0 0017 11.687V5.314A5.313 5.313 0 0011.687 0zm3.718 11.688a3.723 3.723 0 01-3.719 3.718H5.314a3.723 3.723 0 01-3.72-3.719V5.314a3.723 3.723 0 013.72-3.72h6.375a3.723 3.723 0 013.718 3.72v6.375z" fill="url(#paint0_linear)"/><path d="M8.5 4.25a4.25 4.25 0 100 8.5 4.25 4.25 0 000-8.5zm0 6.906A2.66 2.66 0 015.844 8.5 2.66 2.66 0 018.5 5.844 2.66 2.66 0 0111.156 8.5 2.66 2.66 0 018.5 11.156z" fill="url(#paint1_linear)"/><path d="M13.069 4.498a.566.566 0 100-1.133.566.566 0 000 1.133z" fill="url(#paint2_linear)"/><defs><linearGradient id="paint0_linear" x1="1.556" y1="15.444" x2="15.444" y2="1.556" gradientUnits="userSpaceOnUse"><stop stop-color="#FFC107"/><stop offset=".507" stop-color="#F44336"/><stop offset=".99" stop-color="#9C27B0"/></linearGradient><linearGradient id="paint1_linear" x1="5.495" y1="11.505" x2="11.505" y2="5.495" gradientUnits="userSpaceOnUse"><stop stop-color="#FFC107"/><stop offset=".507" stop-color="#F44336"/><stop offset=".99" stop-color="#9C27B0"/></linearGradient><linearGradient id="paint2_linear" x1="12.668" y1="4.332" x2="13.469" y2="3.531" gradientUnits="userSpaceOnUse"><stop stop-color="#FFC107"/><stop offset=".507" stop-color="#F44336"/><stop offset=".99" stop-color="#9C27B0"/></linearGradient></defs></svg>