<svg width="54" height="50" viewBox="0 0 54 50" fill="none" xmlns="http://www.w3.org/2000/svg"><g clip-path="url(#clip0)"><path d="M12.194 17.742c2.405 0 4.355-1.805 4.355-4.032 0-2.227-1.95-4.033-4.355-4.033-2.405 0-4.355 1.806-4.355 4.033 0 2.227 1.95 4.032 4.355 4.032z" fill="#FD8F01"/><path d="M16.236 11.91l-1.117-1.24-4.613 3.561-1.18-1.092-1.232 1.14 2.304 2.135 5.838-4.504zm15.99-.62H19.162v1.613h13.064V11.29zm1.742 3.226H19.162v1.613h14.806v-1.613zm-17.732 5.458l-1.117-1.239-4.613 3.56-1.18-1.091-1.232 1.14 2.304 2.134 5.838-4.504zm21.216-.619h-18.29v1.613h18.29v-1.613zM22.645 22.58h-3.483v1.614h3.483V22.58zm14.807 0H24.387v1.614h13.065V22.58zm-21.216 5.459l-1.117-1.24-4.613 3.561-1.18-1.092-1.232 1.14 2.304 2.135 5.838-4.504zm21.216-.619h-18.29v1.612h18.29V27.42zm-5.226 3.225H19.162v1.613h13.064v-1.613zm5.226 0h-3.484v1.613h3.484v-1.613zm0-19.355h-3.484v1.613h3.484V11.29z" fill="#222"/><path d="M51.388 37.097H44.42V4.032C44.42 1.81 42.467 0 40.065 0H4.355C1.956 0 .002 1.809.002 4.032c0 2.224 1.954 4.033 4.355 4.033V50h36.58v-4.839h3.484v-3.226h6.968c1.44 0 2.613-1.085 2.613-2.42 0-1.333-1.173-2.418-2.613-2.418zm-8.71-33.065v33.065h-1.742V6.452h-.87c-1.441 0-2.614-1.086-2.614-2.42 0-1.334 1.173-2.42 2.613-2.42s2.613 1.086 2.613 2.42zm-40.935 0c0-1.334 1.172-2.42 2.613-2.42h32.248c-.553.677-.894 1.509-.894 2.42 0 .912.341 1.744.894 2.42H4.356c-1.44 0-2.613-1.086-2.613-2.42zm4.355 44.355V8.064h33.096v29.033H14.666l-7.838 2.42 7.838 2.418h24.528v6.452H6.098zm6.238-8.87l1.6-.495v.988l-1.6-.494zm30.342 4.031h-1.742v-1.613h1.742v1.613zm1.742-3.226H15.678V38.71H44.42v1.613zm3.484 0h-1.742V38.71h1.742v1.613zm3.484 0h-1.742V38.71h1.742c.48 0 .87.363.87.807 0 .445-.39.806-.87.806z" fill="#222"/></g><defs><clipPath id="clip0"><path fill="#fff" d="M0 0h54v50H0z"/></clipPath></defs></svg>