<svg width="27" height="26" viewBox="0 0 27 26" fill="none" xmlns="http://www.w3.org/2000/svg"><rect x=".333" width="26" height="26" rx="3" fill="#FB9013"/><path d="M13.667 14.3a4.983 4.983 0 10-4.983-4.984 4.99 4.99 0 004.983 4.983zm0-7.667a2.683 2.683 0 110 5.366 2.683 2.683 0 010-5.366z" fill="#FFFFFE"/><path d="M18.548 16.66a1.93 1.93 0 00.869-1.61 1.39 1.39 0 00-.78-1.268 1.457 1.457 0 00-1.533.144 5.833 5.833 0 01-6.873 0 1.464 1.464 0 00-1.533-.144c-.484.236-.788.73-.78 1.268 0 .648.326 1.253.868 1.61a8.85 8.85 0 002.246 1.073c.135.042.274.081.418.117l-2.317 2.265a1.533 1.533 0 102.173 2.164l2.361-2.444 2.366 2.448a1.533 1.533 0 102.165-2.17l-2.313-2.264c.144-.037.283-.076.42-.117.794-.25 1.55-.61 2.243-1.071z" fill="#FFFFFE"/></svg>