<svg width="44" height="50" viewBox="0 0 44 50" fill="none" xmlns="http://www.w3.org/2000/svg"><path d="M25.215 33.011c6.214 0 11.251-5.037 11.251-11.25 0-6.214-5.037-11.252-11.251-11.252-6.214 0-11.251 5.038-11.251 11.251 0 6.214 5.037 11.251 11.251 11.251z" fill="#FD8F01"/><path d="M41.907 3.276A43.956 43.956 0 0125.514.12l-.3-.12-.297.12A43.96 43.96 0 018.522 3.276H6.731v16.877H2.713a2.414 2.414 0 00-2.411 2.41v13.663a2.414 2.414 0 002.41 2.411H9.95a20.864 20.864 0 007.665 7.217l7.6 4.146 7.602-4.146A20.87 20.87 0 0043.698 27.52V3.276h-1.792zM1.91 36.226V22.564c0-.443.36-.804.803-.804h7.233c.444 0 .804.361.804.804v13.662c0 .443-.36.804-.804.804H2.713a.805.805 0 01-.804-.804zm10.447-12.062a5.108 5.108 0 004.822-5.093v-4.142c0-1.107.901-2.009 2.01-2.009 1.108 0 2.009.902 2.009 2.01v5.058a2.58 2.58 0 002.576 2.576h5.892a2.786 2.786 0 012.783 2.783v8.9a2.786 2.786 0 01-2.783 2.783H17.824c-.639 0-1.23-.318-1.584-.848a3.504 3.504 0 00-2.922-1.563h-.962V24.164zm29.735 3.357a19.265 19.265 0 01-10.044 16.922l-6.832 3.726-6.832-3.726a19.275 19.275 0 01-6.896-6.379c.488-.41.809-1.005.854-1.68a17.593 17.593 0 006.812 6.647l6.062 3.307 6.062-3.307a17.657 17.657 0 009.207-15.51v-12.19h-1.607v12.19a16.05 16.05 0 01-8.37 14.1l-5.292 2.886-5.293-2.887a15.996 15.996 0 01-5.597-5.092c.225.14.426.319.578.546a3.504 3.504 0 002.92 1.563h11.842c2.421 0 4.39-1.97 4.39-4.39v-8.9c0-2.42-1.969-4.39-4.39-4.39h-5.892a.97.97 0 01-.969-.97V14.93a3.62 3.62 0 00-3.616-3.617 3.62 3.62 0 00-3.617 3.617v4.14c0 1.832-1.421 3.322-3.218 3.466a2.395 2.395 0 00-.8-1.756V8.006a48.725 48.725 0 0013.662-2.84 48.735 48.735 0 0013.662 2.84v.896h1.607V6.477l-.767-.036a47.154 47.154 0 01-14.223-2.885l-.28-.103-.278.102a47.165 47.165 0 01-14.224 2.886l-.767.036v13.676H8.338V4.883h.184c5.74 0 11.354-1.06 16.693-3.153a45.543 45.543 0 0016.692 3.154h.184V27.52z" fill="#222"/><path d="M38.877 12.92a.804.804 0 101.607 0 .804.804 0 00-1.607 0zM9.142 33.815H3.516v1.608h5.626v-1.608z" fill="#222"/></svg>