<svg width="40" height="51" viewBox="0 0 40 51" fill="none" xmlns="http://www.w3.org/2000/svg">
<path d="M19.7423 28.791C9.76352 28.791 1.64551 36.909 1.64551 46.8878V51.0008H37.8391V46.8878C37.8391 36.909 29.7211 28.791 19.7423 28.791ZM27.0255 32.1586C24.6845 37.2208 21.2616 44.5466 19.7876 47.5377L12.4633 32.1562C14.6613 31.0655 17.1265 30.4362 19.7423 30.4362C22.3597 30.436 24.8266 31.0662 27.0255 32.1586ZM28.2552 33.4205L30.3191 42.3635L21.7627 47.253C22.8821 44.9818 24.8102 40.8714 28.2552 33.4205ZM17.8708 47.3385L9.16531 42.3644L11.2341 33.4015L17.8708 47.3385ZM3.2907 46.8878C3.2907 41.7425 5.66798 37.146 9.37779 34.1272L7.28761 43.1854L18.0848 49.3556H3.2907V46.8878ZM36.1939 49.3554H21.3998L32.1977 43.1853L30.1067 34.127C33.8165 37.1459 36.1937 41.7425 36.1937 46.8876V49.3554H36.1939Z" fill="#222222"/>
<path d="M29.9997 23.8538H32.0809C33.4414 23.8538 34.5487 22.7465 34.5487 21.386V18.9182H32.9035V21.386C32.9035 21.8393 32.535 22.2086 32.0809 22.2086H31.1225C32.2478 20.2698 32.9035 18.0265 32.9035 15.628C32.9035 8.37112 26.999 2.4668 19.7423 2.4668C12.4856 2.4668 6.58105 8.37129 6.58105 15.628C6.58105 22.8847 12.4856 28.7892 19.7423 28.7892C23.887 28.7894 27.5854 26.8587 29.9997 23.8538ZM8.2259 15.628C8.2259 9.27767 13.3918 4.11182 19.7421 4.11182C26.0924 4.11182 31.2583 9.27767 31.2583 15.628C31.2583 18.0744 30.486 20.3414 29.1797 22.2086H23.7038C23.3633 21.2535 22.4583 20.5634 21.3873 20.5634H18.0969C16.7364 20.5634 15.6291 21.6707 15.6291 23.0312C15.6291 24.3917 16.7364 25.499 18.0969 25.499H21.3873C22.4583 25.499 23.3631 24.8089 23.7038 23.8538H27.787C25.7091 25.8856 22.8713 27.1442 19.743 27.1442C13.3918 27.1442 8.2259 21.9784 8.2259 15.628ZM22.2099 23.0312C22.2099 23.4845 21.8414 23.8538 21.3873 23.8538H18.0969C17.6428 23.8538 17.2743 23.4845 17.2743 23.0312C17.2743 22.5779 17.6428 22.2086 18.0969 22.2086H21.3873C21.8413 22.2086 22.2099 22.5781 22.2099 23.0312Z" fill="#222222"/>
<path d="M19.7419 1.6452C25.6867 1.6452 30.994 5.41339 32.9492 11.0218L34.5031 10.4806C32.3167 4.21162 26.385 0 19.7419 0C13.0996 0 7.16801 4.21162 4.98145 10.4797L6.53526 11.0218C8.4907 5.41339 13.798 1.6452 19.7419 1.6452Z" fill="#222222"/>
<path d="M6.58061 21.3871H5.75801C2.5837 21.3871 0 18.8034 0 15.6291C0 12.4548 2.5837 9.87109 5.75801 9.87109H6.58061V21.3871Z" fill="#FD8F01"/>
<path d="M33.7249 21.3873H32.9023V9.87109H33.7249C36.8992 9.87109 39.4829 12.4548 39.4829 15.6291C39.4829 18.8034 36.8994 21.3873 33.7249 21.3873Z" fill="#FD8F01"/>
</svg>
