<svg width="50" height="50" viewBox="0 0 50 50" fill="none" xmlns="http://www.w3.org/2000/svg"><path d="M25 37.903c7.126 0 12.903-5.777 12.903-12.903S32.126 12.097 25 12.097 12.097 17.874 12.097 25 17.874 37.903 25 37.903z" fill="#FD8F01"/><path d="M25 7.258C15.217 7.258 7.258 15.217 7.258 25c0 9.783 7.96 17.742 17.742 17.742 9.783 0 17.742-7.959 17.742-17.742 0-9.783-7.959-17.742-17.742-17.742zm0 33.871c-8.893 0-16.129-7.235-16.129-16.129 0-8.893 7.236-16.129 16.13-16.129 8.893 0 16.128 7.236 16.128 16.129 0 8.894-7.235 16.129-16.129 16.129z" fill="#222"/><path d="M24.193 24.194H13.71v1.613h12.097V13.71h-1.613v10.484zM25 12.097a.807.807 0 100-1.613.807.807 0 000 1.613zm0 27.419a.806.806 0 100-1.613.806.806 0 000 1.613zm13.71-13.71a.806.806 0 100-1.612.806.806 0 000 1.612zm-27.42 0a.806.806 0 100-1.612.806.806 0 000 1.612z" fill="#222"/><path d="M5.702 34.378L4.77 36.71A23.242 23.242 0 011.613 25C1.613 12.105 12.105 1.613 25 1.613a23.442 23.442 0 0114.698 5.2l1.014-1.254A25.061 25.061 0 0025 0C11.214 0 0 11.214 0 25c0 4.459 1.187 8.782 3.43 12.606l-2.465-.493-.317 1.58 4.69.939L7.2 34.977l-1.499-.599zm1.556 7.557a.806.806 0 100-1.612.806.806 0 000 1.612zM46.57 12.394l2.466.493.317-1.581-4.69-.938-1.863 4.655 1.498.598.932-2.332A23.246 23.246 0 0148.387 25c0 12.895-10.492 23.387-23.387 23.387a23.442 23.442 0 01-14.697-5.2l-1.015 1.254A25.06 25.06 0 0025 50c13.786 0 25-11.215 25-25 0-4.459-1.187-8.782-3.43-12.606zm-3.828-2.717a.806.806 0 100-1.613.806.806 0 000 1.613z" fill="#222"/></svg>