<svg width="26" height="26" viewBox="0 0 26 26" fill="none" xmlns="http://www.w3.org/2000/svg"><rect width="26" height="26" rx="3" fill="#58ADF0"/><path d="M11.102 19.5c-.687 0-1.394-.056-2.105-.167-1.253-.197-2.52-.852-2.88-1.048l-.94-.515 1.018-.335c1.114-.366 1.792-.593 2.63-.949a3.499 3.499 0 01-1.798-2.084l-.237-.72.194.03a3.53 3.53 0 01-.443-.546c-.401-.61-.613-1.354-.568-1.992l.044-.628.376.146c-.158-.3-.273-.62-.34-.955A3.634 3.634 0 016.44 7.29l.327-.602.438.526c1.386 1.665 3.14 2.652 5.224 2.941a3.124 3.124 0 01.19-1.66 3.107 3.107 0 011.263-1.448 3.795 3.795 0 012.202-.54c.822.05 1.57.358 2.162.89.29-.074.503-.155.792-.263.173-.066.37-.14.616-.225l.908-.312-.592 1.69.121-.008.97-.044-.574.783a1.547 1.547 0 00-.052.075c-.047.07-.104.156-.89 1.206a1.48 1.48 0 00-.277.964c.07 1.364-.098 2.598-.498 3.668a6.49 6.49 0 01-1.742 2.58c-.962.868-2.19 1.461-3.648 1.764a11.14 11.14 0 01-2.278.224z" fill="#FFFFFE"/></svg>