<svg viewBox="0 0 1000 323.65" xmlns="http://www.w3.org/2000/svg"><path fill="#00579f" d="M433.334 318.985h-80.99l50.69-313.307h80.98zM727.043 13.337C711.064 6.998 685.72 0 654.383 0c-80.002 0-136.338 42.66-136.684 103.653-.664 45 40.335 69.994 71 84.998 31.342 15.332 41.996 25.34 41.996 39.006-.319 20.99-25.326 30.665-48.65 30.665-32.344 0-49.674-4.988-76.01-16.666l-10.668-5.006-11.336 70.33c19 8.657 54.006 16.339 90.35 16.675 85.003 0 140.342-42 140.998-106.997.323-35.666-21.326-62.995-68-85.327-28.335-14.335-45.687-24.001-45.687-38.67.332-13.333 14.677-26.991 46.661-26.991C674.69 65 694.04 71.33 708.7 77.665l7.327 3.327 11.017-67.655zm107.649 194.655c6.672-18 32.344-87.661 32.344-87.661-.337.669 6.658-18.332 10.658-29.996l5.662 26.997s15.34 74.995 18.672 90.66h-67.336zM934.691 5.678h-62.663c-19.323 0-34.004 5.661-42.342 25.995L709.354 318.981h85.003s13.994-38.67 17.002-46.998h104.012c2.326 11 9.667 46.998 9.667 46.998h75.008L934.691 5.678zm-650.01 0l-79.337 213.645-8.67-43.33C182.008 125.998 136.007 71.677 84.672 44.667l72.67 273.987h85.667L370.344 5.678h-85.663z"/><path d="M131.673 5.678H1.333L0 12.008c101.673 26 169.01 88.671 196.675 163.999L168.34 32.014c-4.664-20.01-19-25.676-36.667-26.336z" fill="#faa61a"/></svg>