<svg width="27" height="26" viewBox="0 0 27 26" fill="none" xmlns="http://www.w3.org/2000/svg"><rect x=".5" width="26" height="26" rx="3" fill="#366591"/><path d="M21.348 16.565c-.513-.616-1.116-1.14-1.688-1.698-.515-.503-.547-.795-.133-1.375.452-.633.938-1.242 1.394-1.872.426-.589.861-1.176 1.085-1.881.142-.45.017-.647-.443-.726A1.42 1.42 0 0021.32 9l-2.73-.003c-.336-.005-.522.141-.64.44-.161.402-.327.804-.518 1.193-.434.881-.919 1.733-1.598 2.454-.15.16-.315.36-.566.278-.313-.115-.405-.63-.4-.805l-.003-3.15c-.06-.45-.16-.652-.607-.739h-2.836c-.378 0-.568.147-.77.383-.117.137-.152.226.088.271.47.09.736.394.806.866.113.754.105 1.511.04 2.268-.02.221-.057.442-.145.648-.137.325-.358.39-.65.19-.263-.18-.448-.435-.629-.69a15.235 15.235 0 01-1.665-3.087c-.128-.314-.348-.505-.681-.51a69.568 69.568 0 00-2.458 0c-.492.01-.64.249-.439.696.892 1.984 1.885 3.913 3.181 5.67.666.902 1.43 1.698 2.417 2.262 1.118.64 2.322.832 3.59.773.594-.028.773-.183.8-.774.019-.405.065-.808.264-1.172.196-.357.493-.425.836-.203.17.111.315.253.451.402.335.366.657.743 1.004 1.096.435.443.95.704 1.598.651h2.51c.404-.026.613-.521.381-.973a4.832 4.832 0 00-.604-.87z" fill="#FFFFFE"/></svg>