<svg width="21" height="12" viewBox="0 0 21 12" fill="none" xmlns="http://www.w3.org/2000/svg"><path d="M10.198 11.95h1.245s.377-.043.568-.252c.178-.192.171-.552.171-.552s-.025-1.686.752-1.935c.764-.244 1.747 1.63 2.788 2.352.787.545 1.384.426 1.384.426l2.784-.04s1.457-.09.766-1.246c-.056-.094-.402-.854-2.07-2.416-1.745-1.635-1.51-1.37.592-4.197 1.28-1.722 1.792-2.774 1.632-3.224-.152-.428-1.094-.315-1.094-.315l-3.132.018s-.232-.031-.405.073c-.168.102-.276.339-.276.339s-.497 1.333-1.158 2.466c-1.396 2.391-1.954 2.517-2.182 2.369-.53-.346-.398-1.391-.398-2.132 0-2.318.348-3.284-.679-3.534-.34-.083-.591-.138-1.463-.147C8.907-.01 7.96.007 7.424.27c-.357.176-.632.57-.464.591.208.028.677.128.925.47.322.44.31 1.431.31 1.431s.185 2.728-.43 3.067c-.424.233-1.004-.242-2.248-2.412-.637-1.11-1.119-2.34-1.119-2.34S4.304.85 4.139.728C3.94.577 3.657.53 3.657.53L.679.55S.232.563.068.759c-.146.174-.012.535-.012.535s2.332 5.504 4.972 8.279c2.421 2.543 5.17 2.376 5.17 2.376z" fill="#1E88E5"/></svg>