<svg width="17" height="18" viewBox="0 0 17 18" fill="none" xmlns="http://www.w3.org/2000/svg"><path d="M8.287 17.216h-.018c-2.654 0-4.35-1.291-4.516-1.366l-3.128.835.839-3.122-.2-.32A8.621 8.621 0 010 8.736C0 1.206 8.96-2.56 14.146 2.763c5.173 5.267 1.541 14.453-5.86 14.453z" fill="#4CAF50"/><path d="M12.823 10.84l-.007.065c-.251-.129-1.474-.743-1.701-.827-.511-.195-.367-.031-1.349 1.123-.146.167-.29.18-.539.064-.25-.128-1.053-.398-2.004-1.271-.74-.681-1.237-1.516-1.384-1.773-.244-.434.267-.495.732-1.4.084-.18.041-.321-.02-.449-.063-.128-.561-1.387-.77-1.89-.2-.5-.406-.436-.56-.436-.48-.043-.831-.036-1.14.295-1.347 1.52-1.007 3.087.144 4.753 2.264 3.043 3.47 3.603 5.675 4.38.595.195 1.138.167 1.567.104.48-.078 1.474-.618 1.682-1.221.212-.604.212-1.105.15-1.22-.062-.117-.225-.18-.476-.296z" fill="#FAFAFA"/></svg>