<svg width="15" height="15" viewBox="0 0 15 15" fill="none" xmlns="http://www.w3.org/2000/svg"><path d="M14.932 7.38l-.884-.53a.864.864 0 01-.25-1.255l.614-.828a.14.14 0 00-.092-.222l-1.02-.152a.864.864 0 01-.71-1.063l.25-1a.14.14 0 00-.17-.17l-1 .25a.863.863 0 01-1.063-.71L10.455.68a.14.14 0 00-.222-.092l-.828.614A.864.864 0 018.15.952L7.62.068a.14.14 0 00-.24 0l-.53.884a.864.864 0 01-1.255.25L4.767.588a.14.14 0 00-.222.091L4.393 1.7a.864.864 0 01-1.063.711l-1-.25a.14.14 0 00-.17.17l.25 1a.864.864 0 01-.71 1.063l-1.02.152a.14.14 0 00-.092.222l.614.828a.864.864 0 01-.25 1.255l-.884.53a.14.14 0 000 .24l.884.53a.864.864 0 01.25 1.255l-.614.828a.14.14 0 00.092.222l1.02.152a.863.863 0 01.71 1.063l-.25 1a.14.14 0 00.17.17l1-.25a.864.864 0 011.063.71l.152 1.02a.14.14 0 00.222.092l.828-.614a.863.863 0 011.255.25l.53.884a.14.14 0 00.24 0l.53-.884a.864.864 0 011.255-.25l.828.614a.14.14 0 00.222-.092l.152-1.02a.864.864 0 011.063-.71l1 .25a.14.14 0 00.17-.17l-.25-1a.863.863 0 01.71-1.063l1.02-.152a.14.14 0 00.092-.222l-.614-.828a.864.864 0 01.25-1.255l.884-.53a.14.14 0 000-.24zM12.11 8.42a4.681 4.681 0 01-3.69 3.69 4.704 4.704 0 01-5.528-5.53 4.681 4.681 0 013.69-3.69 4.704 4.704 0 015.528 5.53z" fill="#888"/></svg>