<svg width="70" height="52" viewBox="0 0 70 52" fill="none" xmlns="http://www.w3.org/2000/svg"><path d="M23.891 25.292c5.773 0 10.481-3.545 10.481-7.888 0-4.344-4.694-7.89-10.481-7.89S13.41 13.06 13.41 17.405c0 4.343 4.708 7.888 10.481 7.888zm0-12.975c4.204 0 7.679 2.326 7.679 5.086 0 2.76-3.518 5.087-7.679 5.087-4.162 0-7.68-2.326-7.68-5.087 0-2.76 3.518-5.1 7.68-5.1v.014z" fill="#FD8F01"/><path d="M68.325 31.976H47.642V17.39C47.642 7.805 36.98 0 23.822 0 10.662 0 0 7.805 0 17.389v17.235c0 8.828 9.038 16.115 20.682 17.222h.239a33.89 33.89 0 002.942.154h44.462c.773 0 1.4-.628 1.4-1.401V33.377a1.4 1.4 0 00-1.4-1.4zM23.89 2.816c11.56 0 21.019 6.544 21.019 14.588 0 8.043-9.402 14.586-21.019 14.586-11.616 0-21.018-6.543-21.018-14.587 0-8.043 9.472-14.587 21.018-14.587zm21.02 22.757v6.403h-8.127a21.13 21.13 0 008.056-6.403h.071zm22.013 23.624h-2.802v-7.09a1.402 1.402 0 00-2.803 0v7.104h-5.605v-3.853a1.402 1.402 0 00-2.802 0v3.853h-5.605v-3.853a1.402 1.402 0 00-2.803 0v3.853h-5.605v-7.104a1.402 1.402 0 00-2.803 0v7.104H30.73v-3.853a1.402 1.402 0 00-2.803 0v3.853h-5.606v-3.853a1.402 1.402 0 00-2.803 0v3.517c-9.457-1.401-16.575-7.258-16.575-14.264v-9.038c4.007 5.478 11.896 9.205 21.018 9.205h42.962v14.42z" fill="#FD8F01"/></svg>