<svg width="71" height="71" viewBox="0 0 71 71" fill="none" xmlns="http://www.w3.org/2000/svg"><path d="M32.25 48.156a1.4 1.4 0 000-1.962 1.361 1.361 0 00-1.938 0 1.401 1.401 0 000 1.962c.536.54 1.403.54 1.939 0zM25.762 15.25c0 8.408 6.761 15.25 15.073 15.25 8.311 0 15.073-6.842 15.073-15.25C55.908 6.84 49.146 0 40.835 0c-8.312 0-15.073 6.841-15.073 15.25zm27.405 0c0 6.88-5.532 12.477-12.332 12.477-6.8 0-12.333-5.597-12.333-12.477S34.034 2.773 40.835 2.773c6.8 0 12.332 5.597 12.332 12.477z" fill="#FD8F01"/><path d="M15.783 70.59a1.359 1.359 0 001.934.011l6.644-6.621c1.128-1.142 1.472-2.833.975-4.302l1.43-1.395a4.062 4.062 0 012.853-1.166h18.216c3.232 0 6.286-1.256 8.602-3.536.095-.093-.723.882 12.427-15.02 1.951-2.334 1.66-5.84-.65-7.816a5.45 5.45 0 00-7.69.619l-8.086 8.408a5.483 5.483 0 00-4.26-2.064h-15.28a17.5 17.5 0 00-6.863-1.386c-6.598 0-12.36 3.083-15.452 8.864a4.063 4.063 0 00-3.665 1.15L.4 52.95a1.398 1.398 0 00-.002 1.955L15.783 70.59zm10.252-31.496c2.099 0 4.128.428 6.033 1.27.173.078.36.117.549.117h15.56c1.486 0 2.741 1.226 2.741 2.772 0 1.53-1.229 2.773-2.74 2.773h-11.18c-.757 0-1.37.621-1.37 1.386 0 .767.613 1.387 1.37 1.387h11.18c3.022 0 5.48-2.488 5.48-5.546 0-.243-.017-.485-.047-.724 7.821-8.135 8.924-9.278 8.971-9.335a2.728 2.728 0 013.864-.33c1.154.987 1.3 2.74.321 3.913l-12.29 14.865a9.484 9.484 0 01-6.642 2.702H29.619a6.771 6.771 0 00-4.757 1.944l-1.165 1.137-10.735-10.86c2.51-4.762 7.217-7.47 13.073-7.47zm-17.177 9.2a1.355 1.355 0 011.697-.195c.237.147-.444-.48 11.868 11.959a1.4 1.4 0 01.008 1.954l-5.664 5.645L3.303 53.93l5.555-5.637zM39.19 6.932v1.624a4.162 4.162 0 00-2.74 3.92c0 2.294 1.844 4.16 4.11 4.16.756 0 1.37.622 1.37 1.386a1.38 1.38 0 01-1.37 1.386c-.584 0-1.217-.372-1.778-1.048a1.36 1.36 0 00-1.931-.17 1.397 1.397 0 00-.167 1.954c.732.881 1.594 1.496 2.507 1.806v1.617c0 .766.613 1.387 1.37 1.387.756 0 1.37-.62 1.37-1.387v-1.624a4.164 4.164 0 002.74-3.92c0-2.294-1.843-4.16-4.11-4.16a1.38 1.38 0 01-1.37-1.386 1.38 1.38 0 011.37-1.387c.485 0 .998.251 1.482.725a1.36 1.36 0 001.938-.032 1.398 1.398 0 00-.032-1.96c-.696-.681-1.392-1.066-2.018-1.277V6.932c0-.766-.614-1.387-1.37-1.387-.757 0-1.37.62-1.37 1.387z" fill="#FD8F01"/></svg>