<svg width="31" height="31" viewBox="0 0 31 31" fill="none" xmlns="http://www.w3.org/2000/svg"><path d="M18.514 6.543a6.72 6.72 0 013.49 1.9 6.98 6.98 0 011.856 3.573M18.514 1a12.071 12.071 0 017.264 3.571c1.955 2 3.188 4.62 3.497 7.431M27.921 23.06v4.157c.002.386-.075.768-.226 1.122a2.77 2.77 0 01-.65.932c-.279.26-.607.46-.964.583-.357.124-.735.17-1.11.135a26.394 26.394 0 01-11.682-4.254 26.717 26.717 0 01-8.122-8.314A27.844 27.844 0 011.01 5.407c-.034-.384.01-.77.13-1.135.12-.364.313-.7.567-.983a2.71 2.71 0 01.905-.667 2.654 2.654 0 011.092-.236h4.06a2.67 2.67 0 011.793.67 2.79 2.79 0 01.915 1.713c.171 1.33.49 2.637.947 3.894.183.496.222 1.035.114 1.553a2.791 2.791 0 01-.723 1.37l-1.719 1.76a21.921 21.921 0 008.122 8.315l1.72-1.76c.367-.373.832-.63 1.338-.74a2.648 2.648 0 011.517.116c1.228.47 2.505.795 3.804.97a2.691 2.691 0 011.688.953 2.81 2.81 0 01.64 1.86z" stroke="#FD8F01" stroke-width="2" stroke-linecap="round" stroke-linejoin="round"/></svg>