<svg width="15" height="15" viewBox="0 0 15 15" fill="none" xmlns="http://www.w3.org/2000/svg"><path d="M11.432 1l2.471 2.471-2.47 2.47m-2.472-2.47h4.942m-.617 7.363v1.854a1.234 1.234 0 01-1.347 1.235 12.225 12.225 0 01-5.331-1.896A12.047 12.047 0 012.9 8.32a12.225 12.225 0 01-1.896-5.356 1.236 1.236 0 011.23-1.346h1.853A1.235 1.235 0 015.323 2.68c.078.593.223 1.176.432 1.736a1.235 1.235 0 01-.278 1.304l-.784.784a9.884 9.884 0 003.706 3.707l.785-.785a1.236 1.236 0 011.303-.278c.56.21 1.143.354 1.736.432a1.235 1.235 0 011.063 1.254z" stroke="#0086FF" stroke-width="1.5" stroke-linecap="round" stroke-linejoin="round"/></svg>