<svg width="60" height="60" viewBox="0 0 60 60" fill="none" xmlns="http://www.w3.org/2000/svg"><path d="M40.203 18.182c-.64 0-1.16.523-1.16 1.171 0 .647.52 1.172 1.16 1.172.641 0 1.16-.525 1.16-1.172 0-.648-.519-1.171-1.16-1.171zM19.142 39.474c-.64 0-1.159.525-1.159 1.172 0 .648.518 1.171 1.16 1.171.64 0 1.159-.523 1.159-1.172 0-.646-.52-1.171-1.16-1.171z" fill="#FD8F01"/><path d="M57.905 7.21a1.15 1.15 0 00-1.085.315l-4.806 4.897h-2.303l-2.536-2.656V7.404l4.736-4.86A1.18 1.18 0 0051.456.61 11.447 11.447 0 0047.754 0c-3.775 0-7.205 1.779-9.41 4.882-2.064 2.905-2.7 6.465-1.788 9.872l-8.538 8.632L13.792 8.973V6.144c0-.411-.214-.793-.563-1.005L5.034.167A1.149 1.149 0 003.62.343L.34 3.657c-.375.38-.447.97-.174 1.432l4.917 8.286c.21.353.587.569.994.57h2.797L23.1 28.359l-8.506 8.6c-3.37-.922-6.893-.278-9.767 1.81C1.759 40.997 0 44.464 0 48.281c0 1.28.203 2.539.604 3.741.129.385.445.676.836.767a1.15 1.15 0 001.086-.315l4.804-4.897h2.317l2.64 2.669v2.342l-4.844 4.857a1.18 1.18 0 00-.312 1.098c.09.395.378.715.759.845 1.19.405 2.435.61 3.7.61 3.776 0 7.204-1.778 9.409-4.88 2.065-2.906 2.702-6.467 1.79-9.874l6.832-6.907 1.565 1.719-.718.725a1.181 1.181 0 000 1.658 1.151 1.151 0 001.639 0l.65-.657L47.44 57.905c.01.012.022.023.034.035a6.9 6.9 0 009.836 0c2.71-2.742 2.71-7.203 0-9.945l-.036-.034L41.3 33.145l.643-.65a1.18 1.18 0 000-1.657 1.15 1.15 0 00-1.64 0l-.713.722-1.703-1.58 6.864-6.94c.976.264 1.983.397 3.003.397 6.392 0 11.59-5.257 11.59-11.718 0-1.28-.202-2.54-.604-3.742a1.163 1.163 0 00-.835-.768zm-47.73 4.735a1.14 1.14 0 00-.82-.332H6.734L2.62 4.667l1.998-2.02 6.857 4.16v2.65c0 .31.122.608.338.828l14.565 14.759-1.639 1.657-14.564-14.757zm29.484 22.86l16.027 14.864a4.732 4.732 0 01-.017 6.614 4.6 4.6 0 01-6.541.016l-14.73-16.176 5.261-5.319zm-1.71-1.587l-5.123 5.179-1.565-1.718 4.985-5.041 1.703 1.58zm9.805-12.125a9.171 9.171 0 01-2.962-.488 1.152 1.152 0 00-1.19.282L20.66 44.082a1.18 1.18 0 00-.278 1.203 9.364 9.364 0 01-1.266 8.466c-1.762 2.48-4.505 3.904-7.524 3.904-.34 0-.677-.019-1.01-.055l3.68-3.693c.22-.22.343-.52.343-.832V49.76c0-.31-.122-.609-.34-.829l-3.318-3.354a1.153 1.153 0 00-.82-.344H6.849c-.31 0-.606.125-.823.347l-3.653 3.722a9.586 9.586 0 01-.054-1.022c0-3.053 1.407-5.825 3.861-7.608 2.46-1.787 5.513-2.253 8.374-1.278a1.15 1.15 0 001.19-.282l22.942-23.196c.312-.315.42-.78.28-1.202a9.36 9.36 0 011.262-8.464c1.764-2.482 4.507-3.906 7.527-3.906.35 0 .697.02 1.04.058l-3.604 3.7a1.173 1.173 0 00-.334.821v3.316c0 .303.117.595.325.813l3.203 3.355c.218.23.52.358.834.358h3.28c.308 0 .604-.124.822-.346l3.652-3.722c.037.338.055.679.055 1.022 0 5.169-4.16 9.374-9.273 9.374z" fill="#FD8F01"/><path d="M36.105 21.838L21.601 36.503a1.181 1.181 0 000 1.657 1.15 1.15 0 001.639 0l14.505-14.664a1.18 1.18 0 000-1.658 1.15 1.15 0 00-1.64 0zM50.752 52.97a1.15 1.15 0 001.64-.004c.452-.458.45-1.2-.003-1.657L41.941 40.78a1.15 1.15 0 00-1.639.003 1.18 1.18 0 00.003 1.657l10.447 10.53z" fill="#FD8F01"/></svg>