<svg width="53" height="70" viewBox="0 0 53 70" fill="none" xmlns="http://www.w3.org/2000/svg"><path d="M5.629 25.977c0 11.308 9.2 20.507 20.508 20.507s20.508-9.2 20.508-20.507c0-11.309-9.2-20.508-20.508-20.508s-20.508 9.2-20.508 20.508zM26.137 8.203c9.8 0 17.773 7.973 17.773 17.774 0 9.8-7.973 17.773-17.773 17.773S8.363 35.777 8.363 25.977 16.336 8.203 26.137 8.203z" fill="#FD8F01"/><path d="M13.475 23.54l5.3 5.221-1.22 7.339a1.367 1.367 0 001.979 1.438l6.603-3.43 6.602 3.43a1.367 1.367 0 001.978-1.438l-1.219-7.339 5.3-5.221a1.366 1.366 0 00-.757-2.326l-7.354-1.107-3.328-6.655a1.367 1.367 0 00-2.445 0l-3.328 6.655-7.355 1.107a1.367 1.367 0 00-.756 2.326zm9.22-.835c.44-.066.82-.342 1.02-.74l2.422-4.845 2.421 4.845c.2.398.58.674 1.02.74l5.353.806-3.858 3.8a1.37 1.37 0 00-.389 1.198l.888 5.341-4.806-2.495a1.364 1.364 0 00-1.26 0l-4.805 2.495.887-5.34a1.366 1.366 0 00-.389-1.2l-3.857-3.799 5.353-.806zm4.809-21.338a1.367 1.367 0 11-2.734 0 1.367 1.367 0 012.734 0z" fill="#FD8F01"/><path d="M19.693.806C8.193 3.74.16 14.092.16 25.976a25.895 25.895 0 008.551 19.262L.475 59.754a1.368 1.368 0 001.467 2.014l9.354-1.943 3.288 9.265a1.367 1.367 0 002.476.218l9.077-15.958 9.076 15.958a1.367 1.367 0 002.477-.218l3.287-9.265 9.354 1.943a1.368 1.368 0 001.467-2.014l-8.236-14.516a25.895 25.895 0 008.55-19.262c0-11.884-8.031-22.235-19.532-25.17a1.367 1.367 0 10-.676 2.649c10.289 2.627 17.475 11.888 17.475 22.521 0 12.942-10.51 23.242-23.242 23.242-12.74 0-23.242-10.308-23.242-23.242 0-10.633 7.185-19.894 17.474-22.521a1.368 1.368 0 00-.676-2.65zm-3.532 64.553l-2.687-7.572a1.367 1.367 0 00-1.566-.881l-7.564 1.57 6.519-11.488a26.032 26.032 0 0012.981 4.863l-7.683 13.508zm24.204-8.453a1.368 1.368 0 00-1.566.881l-2.687 7.572L28.43 51.85c4.68-.417 9.18-2.1 12.982-4.863l6.518 11.488-7.564-1.57z" fill="#FD8F01"/></svg>