<svg width="9" height="15" viewBox="0 0 9 15" fill="none" xmlns="http://www.w3.org/2000/svg"><path d="M6.94 0H1.66C.763 0 0 .702 0 1.564v11.874C0 14.3.746 15 1.644 15l5.288-.005c.898 0 1.632-.701 1.632-1.563l.007-11.87C8.571.7 7.841 0 6.94 0zM3.537.938H5.07a.24.24 0 01.244.234.24.24 0 01-.244.234H3.537a.24.24 0 01-.244-.234c0-.13.11-.234.244-.234zm-.92.074a.26.26 0 01.345 0 .233.233 0 01.072.167.232.232 0 01-.072.165.252.252 0 01-.345 0 .232.232 0 01-.07-.165.227.227 0 01.07-.167zm1.637 13.524c-.403 0-.73-.315-.73-.702 0-.387.327-.701.73-.701.403 0 .73.314.73.701 0 .387-.327.702-.73.702zm3.56-1.88H.854V2.226h6.96v10.43z" fill="#888"/></svg>