<svg width="57" height="69" viewBox="0 0 57 69" fill="none" xmlns="http://www.w3.org/2000/svg"><path d="M50.379 22.991l2.9-2.901a4.047 4.047 0 000-5.717 4.047 4.047 0 00-5.716 0l-3.098 3.097a28.308 28.308 0 00-10.774-4.556v-4.02h2.696c.744 0 1.347-.603 1.347-1.347V4.043A4.047 4.047 0 0033.691 0h-10.78a4.047 4.047 0 00-4.044 4.043v3.504c0 .744.604 1.348 1.348 1.348h2.695v4.02a28.302 28.302 0 00-10.774 4.555L9.04 14.373a4.047 4.047 0 00-5.717 0 4.047 4.047 0 000 5.717l2.9 2.901A28.271 28.271 0 000 40.7C0 56.304 12.696 69 28.3 69c15.606 0 28.302-12.696 28.302-28.3 0-6.46-2.202-12.7-6.223-17.709zm-.91-6.713a1.35 1.35 0 011.905 0 1.35 1.35 0 010 1.906l-2.785 2.784a28.63 28.63 0 00-1.97-1.84l2.85-2.85zM21.561 4.043a1.35 1.35 0 011.348-1.348H33.69a1.35 1.35 0 011.348 1.348v2.156H21.562V4.043zm9.434 4.852v3.63a28.994 28.994 0 00-5.39 0v-3.63h5.39zM5.227 16.278a1.35 1.35 0 011.906 0l2.85 2.85a28.642 28.642 0 00-1.97 1.84l-2.786-2.784a1.35 1.35 0 010-1.906zm23.074 50.027c-14.119 0-25.606-11.487-25.606-25.606a25.574 25.574 0 016.366-16.898 25.583 25.583 0 0115.396-8.422 26.027 26.027 0 017.686 0 25.587 25.587 0 0115.397 8.422A25.575 25.575 0 0153.906 40.7c0 14.119-11.486 25.606-25.605 25.606z" fill="#FD8F01"/><path d="M28.3 44.742a4.047 4.047 0 004.044-4.043 4.05 4.05 0 00-2.696-3.811v-9.665a1.348 1.348 0 10-2.695 0v9.665a4.05 4.05 0 00-2.695 3.811 4.047 4.047 0 004.043 4.043zm0-5.39a1.349 1.349 0 010 2.695 1.349 1.349 0 01-1.347-1.348c0-.743.605-1.347 1.348-1.347z" fill="#FD8F01"/><path d="M42.657 26.481a1.241 1.241 0 00-.145-.145 20.287 20.287 0 00-8.494-5.029 1.347 1.347 0 10-.763 2.585c2.36.697 4.56 1.902 6.437 3.51l-.91.909a1.349 1.349 0 001.907 1.906l.91-.911a17.354 17.354 0 014.17 10.045h-1.296a1.348 1.348 0 000 2.696h1.296a17.353 17.353 0 01-4.17 10.045l-.91-.911a1.349 1.349 0 00-1.907 1.906l.912.911a17.36 17.36 0 01-10.046 4.17V56.87a1.348 1.348 0 10-2.695 0v1.296a17.356 17.356 0 01-10.045-4.169l.911-.911a1.348 1.348 0 10-1.906-1.906l-.911.91a17.356 17.356 0 01-4.17-10.044h1.297a1.348 1.348 0 100-2.696h-1.296c.282-3.72 1.73-7.21 4.169-10.045l.91.911a1.348 1.348 0 001.907 0 1.349 1.349 0 000-1.906l-.91-.91a17.556 17.556 0 016.438-3.509 1.348 1.348 0 10-.764-2.585 20.282 20.282 0 00-8.492 5.027 1.348 1.348 0 00-.08.074c-.024.023-.044.047-.065.072-3.78 3.814-5.86 8.86-5.86 14.219s2.08 10.404 5.859 14.218a.88.88 0 00.065.072c.024.024.048.045.072.066 3.814 3.778 8.86 5.859 14.219 5.859s10.404-2.08 14.218-5.858c.024-.022.049-.043.072-.067.023-.022.044-.047.065-.07 3.78-3.815 5.86-8.86 5.86-14.22 0-5.36-2.08-10.404-5.859-14.218z" fill="#FD8F01"/><path d="M28.3 23.18a1.348 1.348 0 100-2.697 1.348 1.348 0 000 2.697z" fill="#FD8F01"/></svg>