<svg width="13" height="13" viewBox="0 0 13 13" fill="none" xmlns="http://www.w3.org/2000/svg"><path d="M7.471.176a.427.427 0 00-.453.051L2.849 3.562H.857A.859.859 0 000 4.42v3.429c0 .473.385.857.857.857H2.85l4.168 3.335a.433.433 0 00.454.05.428.428 0 00.243-.385V.562a.43.43 0 00-.243-.386zm2.412 2.927a.43.43 0 00-.602.61c.648.64 1.004 1.5 1.004 2.42 0 .922-.356 1.782-1.004 2.421a.429.429 0 00.602.609 4.215 4.215 0 001.26-3.03 4.22 4.22 0 00-1.26-3.03z" fill="#888"/><path d="M11.092 1.895a.43.43 0 00-.604.609A5.074 5.074 0 0112 6.134a5.072 5.072 0 01-1.51 3.629.43.43 0 00-.003.606.43.43 0 00.606.002 5.92 5.92 0 001.764-4.237c0-1.606-.625-3.11-1.764-4.239z" fill="#888"/></svg>