<svg viewBox="0 0 150 64" fill="none" xmlns="http://www.w3.org/2000/svg"><path d="M134.733 23.314h7.814V20.74h-5.111v-3.28h4.9v-2.575h-4.9v-3.322h5.111V8.99h-7.814v14.325zm-12.29 0h2.703V8.99h-2.703v14.325zm-8.446-6.228h2.196c.422 0 .76.083 1.098.208.296.124.549.332.718.622.169.291.253.623.253.997s-.084.706-.253.997c-.169.29-.422.456-.718.622a3.037 3.037 0 01-1.098.208h-2.196v-3.654zm-2.703-8.097v14.325h4.857a5.76 5.76 0 001.942-.332c.592-.207 1.098-.498 1.521-.913.422-.374.76-.83 1.013-1.37.254-.54.338-1.122.338-1.786 0-.415-.042-.872-.169-1.287a5.987 5.987 0 00-.507-1.204 4.166 4.166 0 00-.929-.997c-.38-.29-.844-.498-1.351-.664-.549-.166-1.183-.25-1.901-.25h-2.154V8.99h-2.66zM95.709 14.51v-2.948h1.267c.17 0 .338 0 .55.042.21.041.422.083.633.166.211.083.38.25.507.457.127.207.21.457.21.83 0 .083 0 .208-.041.374a1.394 1.394 0 01-.254.498c-.126.166-.295.29-.591.415-.253.125-.591.166-1.056.166H95.71zm0 6.229v-3.654h1.732c.422 0 .76.041 1.056.125a1.5 1.5 0 01.676.373c.168.166.295.29.38.457.084.166.126.332.169.498.042.166.042.29.042.415 0 .374-.085.665-.211.872-.127.208-.296.416-.507.54a4.303 4.303 0 01-.634.29c-.21.042-.422.084-.59.084h-2.113zm-2.703 2.574h3.632c.93 0 1.732-.083 2.408-.249.676-.166 1.225-.373 1.647-.664.422-.29.802-.623 1.056-.997a4.21 4.21 0 00.549-1.162c.127-.416.169-.83.169-1.246 0-.54-.085-1.038-.296-1.495-.211-.457-.464-.872-.845-1.204a4.263 4.263 0 00-1.351-.789c.084-.041.253-.124.422-.25.169-.124.338-.29.507-.497.169-.208.338-.499.465-.79.126-.332.169-.705.211-1.162 0-.54-.085-.996-.254-1.37-.168-.374-.337-.706-.591-.997a3.119 3.119 0 00-.844-.664c-.338-.166-.634-.332-.972-.415-.338-.083-.676-.166-.971-.208a6.453 6.453 0 00-.845-.083H93.05v14.242h-.043zm-16.47-2.242a4.903 4.903 0 01-1.944-.374 5.102 5.102 0 01-1.562-1.038 4.537 4.537 0 01-1.056-1.578 4.825 4.825 0 01-.38-1.91c0-.664.127-1.287.38-1.868a4.783 4.783 0 011.056-1.537 4.873 4.873 0 011.563-1.038c.59-.249 1.266-.373 1.984-.373.719 0 1.394.124 1.986.373.59.25 1.14.582 1.562 1.039.465.456.803.954 1.056 1.536.253.581.38 1.204.38 1.868 0 .665-.127 1.288-.38 1.91a4.955 4.955 0 01-1.056 1.578c-.464.457-.971.79-1.563 1.08a6.476 6.476 0 01-2.027.332zm0-12.332c-.888 0-1.69.124-2.45.373-.76.25-1.478.623-2.112 1.08a7.55 7.55 0 00-1.647 1.62 7.199 7.199 0 00-1.056 2.034 7.321 7.321 0 00-.38 2.367c0 .83.127 1.62.38 2.367a7.2 7.2 0 001.056 2.034 7.555 7.555 0 001.647 1.62c.633.457 1.352.789 2.112 1.038a7.95 7.95 0 002.45.374 7.76 7.76 0 002.449-.374c.76-.25 1.478-.581 2.112-1.038a7.555 7.555 0 001.647-1.62 7.2 7.2 0 001.055-2.034 7.31 7.31 0 00.38-2.367c0-.83-.126-1.62-.38-2.367a7.199 7.199 0 00-1.055-2.034 7.55 7.55 0 00-1.647-1.62c-.634-.457-1.352-.789-2.112-1.08a7.756 7.756 0 00-2.45-.373zM49.378 23.314h2.703v-6.02h5.321v5.979h2.703V8.989h-2.703v5.73h-5.321V8.99h-2.703v14.325z" fill="#FD8F01"/><path d="M133.417 44.346l3.122-8.064 3.123 8.064h-6.245zm-10.338 12.158h5.612l2.827-7.167h10.085l2.827 7.167H150l-11.393-27.687h-4.051l-11.477 27.687zm-22.913 0h5.064V44.9h10v11.604h5.064V28.817h-5.064V39.95h-10V28.817h-5.064v27.687zm-22.955 0h5.064V44.388l8.523 12.116h6.077L86.537 42.426l10.338-13.61h-6.076l-8.524 11.989V28.817H77.21v27.687zM59.11 52.195c-1.35 0-2.574-.256-3.67-.768-1.14-.512-2.11-1.151-2.955-2.047a8.451 8.451 0 01-1.94-3.03 9.847 9.847 0 010-7.38c.464-1.11 1.096-2.133 1.94-2.986a8.876 8.876 0 012.954-2.005 9.612 9.612 0 013.713-.725c1.35 0 2.574.255 3.714.725a8.876 8.876 0 012.953 2.005 8.664 8.664 0 011.941 2.986 9.631 9.631 0 01.718 3.669c0 1.28-.254 2.517-.718 3.669a9.508 9.508 0 01-1.94 3.029c-.845.853-1.815 1.578-2.997 2.048-1.097.554-2.32.81-3.713.81zm.042-23.89c-1.645 0-3.207.256-4.641.725-1.435.47-2.785 1.152-3.967 2.048-1.181.896-2.236 1.92-3.08 3.157-.886 1.194-1.52 2.517-2.026 3.967a14.968 14.968 0 00-.717 4.565c0 1.621.253 3.114.718 4.565.464 1.45 1.139 2.73 2.025 3.967a15.307 15.307 0 003.08 3.115c1.182.853 2.532 1.535 3.967 2.047 1.434.47 2.996.726 4.641.726 1.646 0 3.165-.256 4.642-.725a13.003 13.003 0 003.966-2.048 14.482 14.482 0 003.123-3.115 13.532 13.532 0 002.025-3.967 14.76 14.76 0 00.718-4.565 14.56 14.56 0 00-.718-4.565 13.531 13.531 0 00-2.025-3.967 14.488 14.488 0 00-3.08-3.157 13.501 13.501 0 00-3.967-2.048 15.385 15.385 0 00-4.684-.725z" fill="#222"/><path fill-rule="evenodd" clip-rule="evenodd" d="M34.413 3.055l-.63.17-20.521 7.259L0 15.296l3.903 32.837h.21L2.266 16.562l16.745-4.263 2.099 25.325-9.82 3.587 10.03-2.743 1.3 15.11h.252l-.713-15.49 15.822-4.6c0 5.064-.168 9.58-.168 14.603 0 2.575-.168 4.6-.168 7.218 0 4.01.294 3.08-3.567 3.798-1.26.212-2.183.338-3.148.55-.923.168-2.392.421-3.148.506-1.972.21-4.196.717-6.21 1.097-1.428.296-11.92 2.195-12.255 2.448l30.342-4.052L41.926.354c-1.343.127-6.841 2.701-7.513 2.701zM37.1 32.052c-.755.253-1.3.464-2.056.76-1.343.506-2.896 1.013-4.239 1.435-1.762.59-7.092 2.66-8.687 2.828l-1.091-24.312.126-1.013 17.5-4.516c0 7.47-.546 15.237-.504 22.792-.084 1.9.294 1.562-1.049 2.026z" fill="#222"/></svg>